<svg width="21" height="20" viewBox="0 0 21 20" fill="none" xmlns="http://www.w3.org/2000/svg">
<path d="M16.916 13.3334V5.83335C16.916 5.39133 16.7404 4.9674 16.4279 4.65484C16.1153 4.34228 15.6914 4.16669 15.2494 4.16669H5.24937C4.80734 4.16669 4.38342 4.34228 4.07086 4.65484C3.75829 4.9674 3.5827 5.39133 3.5827 5.83335V13.3334M16.916 13.3334H3.5827M16.916 13.3334L17.9827 15.4584C18.0469 15.5858 18.0774 15.7277 18.071 15.8703C18.0647 16.0129 18.0218 16.1515 17.9466 16.2728C17.8713 16.3941 17.7661 16.4941 17.6411 16.563C17.5161 16.632 17.3755 16.6677 17.2327 16.6667H3.26603C3.12327 16.6677 2.98265 16.632 2.85765 16.563C2.73265 16.4941 2.62747 16.3941 2.55218 16.2728C2.47689 16.1515 2.43403 16.0129 2.4277 15.8703C2.42137 15.7277 2.45179 15.5858 2.51603 15.4584L3.5827 13.3334" stroke="black" stroke-width="2" stroke-linecap="round" stroke-linejoin="round"/>
<path fill-rule="evenodd" clip-rule="evenodd" d="M8.74939 7.65669C8.74939 7.52414 8.85684 7.41669 8.98939 7.41669H10.1894V8.85669H8.74939V7.65669ZM8.74939 8.97669V10.1767C8.74939 10.3092 8.85684 10.4167 8.98939 10.4167H10.1894V8.97669H8.74939ZM10.3094 8.97669V10.4167H11.5094C11.6419 10.4167 11.7494 10.3092 11.7494 10.1767V8.97669H10.3094ZM11.7494 8.85669V7.65669C11.7494 7.52414 11.6419 7.41669 11.5094 7.41669H10.3094V8.85669H11.7494Z" fill="url(#paint0_linear_32_157)"/>
<defs>
<linearGradient id="paint0_linear_32_157" x1="8.97996" y1="7.75363" x2="10.9124" y2="9.6441" gradientUnits="userSpaceOnUse">
<stop stop-color="#4BD1FF"/>
<stop offset="1" stop-color="#036BBC"/>
</linearGradient>
</defs>
</svg>
